<svg width="150" height="40" viewBox="0 0 150 40" xmlns="http://www.w3.org/2000/svg"><mask id="satori_om-id"><rect x="0" y="0" width="150" height="40" fill="#fff"/></mask><path x="0" y="0" width="150" height="40" fill="#ffa361" d="M20,0 h110 a20,20 0 0 1 20,20 v0 a20,20 0 0 1 -20,20 h-110 a20,20 0 0 1 -20,-20 v0 a20,20 0 0 1 20,-20"/><clipPath id="satori_cp-id-0"><rect x="37" y="8" width="24" height="24"/></clipPath><mask id="satori_om-id-0"><rect x="37" y="8" width="24" height="24" fill="#fff"/></mask><image x="37" y="8" width="24" height="24" href="data:image/svg+xml;utf8,%3Csvg  tw=%22mr-2%22 fill=%22none%22 xmlns=%22http://www.w3.org/2000/svg%22 width=%22null%22 height=%22null%22 viewBox=%220 0 24 24%22%3E%3Cg id=%22SVGRepo_bgCarrier%22 stroke-width=%220%22%3E%3C/g%3E%3Cg id=%22SVGRepo_tracerCarrier%22 stroke-linecap=%22round%22 stroke-linejoin=%22round%22%3E%3C/g%3E%3Cg id=%22SVGRepo_iconCarrier%22%3E %3Cg id=%22style=fill%22%3E %3Cg id=%22email%22%3E %3Cpath id=%22Subtract%22 fill-rule=%22evenodd%22 clip-rule=%22evenodd%22 d=%22M7 2.75C5.38503 2.75 3.92465 3.15363 2.86466 4.1379C1.79462 5.13152 1.25 6.60705 1.25 8.5V15.5C1.25 17.393 1.79462 18.8685 2.86466 19.8621C3.92465 20.8464 5.38503 21.25 7 21.25H17C18.615 21.25 20.0754 20.8464 21.1353 19.8621C22.2054 18.8685 22.75 17.393 22.75 15.5V8.5C22.75 6.60705 22.2054 5.13152 21.1353 4.1379C20.0754 3.15363 18.615 2.75 17 2.75H7ZM19.2285 8.3623C19.5562 8.10904 19.6166 7.63802 19.3633 7.31026C19.1101 6.98249 18.6391 6.9221 18.3113 7.17537L12.7642 11.4616C12.3141 11.8095 11.6858 11.8095 11.2356 11.4616L5.6886 7.17537C5.36083 6.9221 4.88982 6.98249 4.63655 7.31026C4.38328 7.63802 4.44367 8.10904 4.77144 8.3623L10.3185 12.6486C11.3089 13.4138 12.691 13.4138 13.6814 12.6486L19.2285 8.3623Z%22 fill=%22%23000000%22%3E%3C/path%3E%3C/g%3E%3C/g%3E%3C/g%3E%3C/svg%3E" preserveAspectRatio="none" clip-path="url(#satori_cp-id-0)" mask="url(#satori_om-id-0)"/><mask id="satori_om-id-0-0"><rect x="37" y="8" width="0" height="24" fill="#fff"/></mask><mask id="satori_om-id-0-1"><rect x="37" y="8" width="0" height="24" fill="#fff"/></mask><mask id="satori_om-id-0-2"><rect x="37" y="8" width="0" height="24" fill="#fff"/></mask><mask id="satori_om-id-0-2-1"><rect x="37" y="8" width="0" height="24" fill="#fff"/></mask><mask id="satori_om-id-0-2-1-1"><rect x="37" y="8" width="0" height="24" fill="#fff"/></mask><mask id="satori_om-id-0-2-1-1-1"><rect x="37" y="8" width="0" height="24" fill="#fff"/></mask><mask id="satori_om-id-1"><rect x="69" y="10" width="45" height="20" fill="#fff"/></mask><path fill="#000" d="M76.8 25.1L69.9 25.1L69.9 14.9L76.7 14.9L76.7 16.7L72.0 16.7L72.0 19.1L76.4 19.1L76.4 20.9L72.0 20.9L72.0 23.3L76.8 23.3L76.8 25.1ZM82.0 25.1L79.9 25.1L79.9 17.5L81.9 17.5L81.9 18.8L82.0 18.8Q82.3 18.1 82.8 17.7Q83.4 17.4 84.2 17.4L84.2 17.4Q84.9 17.4 85.5 17.7Q86.0 18.1 86.2 18.8L86.2 18.8L86.3 18.8Q86.5 18.1 87.2 17.8Q87.8 17.4 88.6 17.4L88.6 17.4Q89.7 17.4 90.3 18.0Q91.0 18.7 91.0 20.0L91.0 20.0L91.0 25.1L88.9 25.1L88.9 20.4Q88.9 19.7 88.6 19.4Q88.2 19.1 87.7 19.1L87.7 19.1Q87.1 19.1 86.8 19.5Q86.5 19.8 86.5 20.4L86.5 20.4L86.5 25.1L84.4 25.1L84.4 20.3Q84.4 19.8 84.1 19.4Q83.8 19.1 83.3 19.1L83.3 19.1Q82.9 19.1 82.6 19.3Q82.4 19.5 82.2 19.8Q82.0 20.1 82.0 20.5L82.0 20.5L82.0 25.1ZM96.4 25.2L96.4 25.2Q95.6 25.2 95.1 25.0Q94.5 24.7 94.2 24.2Q93.8 23.7 93.8 23.0L93.8 23.0Q93.8 22.3 94.1 21.9Q94.3 21.5 94.7 21.2Q95.1 20.9 95.6 20.8Q96.1 20.7 96.7 20.6L96.7 20.6Q97.4 20.5 97.8 20.5Q98.2 20.4 98.4 20.3Q98.5 20.2 98.5 19.9L98.5 19.9L98.5 19.9Q98.5 19.4 98.3 19.2Q98.0 18.9 97.4 18.9L97.4 18.9Q96.8 18.9 96.5 19.2Q96.2 19.4 96.1 19.8L96.1 19.8L94.1 19.6Q94.2 18.9 94.7 18.4Q95.1 17.9 95.8 17.6Q96.5 17.4 97.4 17.4L97.4 17.4Q98.1 17.4 98.6 17.5Q99.2 17.7 99.7 18.0Q100.1 18.3 100.4 18.8Q100.7 19.3 100.7 19.9L100.7 19.9L100.7 25.1L98.7 25.1L98.7 24.0L98.6 24.0Q98.4 24.4 98.1 24.7Q97.8 24.9 97.4 25.1Q96.9 25.2 96.4 25.2ZM97.0 23.8L97.0 23.8Q97.4 23.8 97.8 23.6Q98.2 23.4 98.4 23.1Q98.6 22.8 98.6 22.4L98.6 22.4L98.6 21.6Q98.5 21.6 98.3 21.7Q98.1 21.7 97.9 21.8Q97.7 21.8 97.5 21.8Q97.3 21.9 97.1 21.9L97.1 21.9Q96.7 21.9 96.4 22.1Q96.2 22.2 96.0 22.4Q95.9 22.6 95.9 22.9L95.9 22.9Q95.9 23.3 96.2 23.5Q96.5 23.8 97.0 23.8ZM105.9 25.1L103.8 25.1L103.8 17.5L105.9 17.5L105.9 25.1ZM104.9 16.5L104.9 16.5Q104.4 16.5 104.1 16.2Q103.7 15.8 103.7 15.4L103.7 15.4Q103.7 15.0 104.1 14.6Q104.4 14.3 104.9 14.3L104.9 14.3Q105.3 14.3 105.7 14.6Q106.0 15.0 106.0 15.4L106.0 15.4Q106.0 15.8 105.7 16.2Q105.3 16.5 104.9 16.5ZM109.1 14.9L111.2 14.9L111.2 25.1L109.1 25.1L109.1 14.9Z "/></svg>