<svg width="130" height="45" viewBox="0 0 130 45" xmlns="http://www.w3.org/2000/svg"><mask id="satori_om-id"><rect x="0" y="0" width="130" height="35" fill="#fff"/></mask><path x="0" y="0" width="130" height="35" fill="#24292F" d="M17.5,0 h95 a17.5,17.5 0 0 1 17.5,17.5 v0 a17.5,17.5 0 0 1 -17.5,17.5 h-95 a17.5,17.5 0 0 1 -17.5,-17.5 v0 a17.5,17.5 0 0 1 17.5,-17.5"/><clipPath id="satori_cp-id-0"><rect x="27" y="8" width="20" height="20"/></clipPath><mask id="satori_om-id-0"><rect x="27" y="8" width="20" height="20" fill="#fff"/></mask><image x="27" y="8" width="20" height="20" href="data:image/svg+xml;utf8,%3Csvg  tw=%22w-5 h-5 mr-2%22 aria-hidden=%22true%22 xmlns=%22http://www.w3.org/2000/svg%22 fill=%22%23fff%22 width=%22null%22 height=%22null%22 viewBox=%220 0 20 20%22%3E%3Cpath fill-rule=%22evenodd%22 d=%22M10 .333A9.911 9.911 0 0 0 6.866 19.65c.5.092.678-.215.678-.477 0-.237-.01-1.017-.014-1.845-2.757.6-3.338-1.169-3.338-1.169a2.627 2.627 0 0 0-1.1-1.451c-.9-.615.07-.6.07-.6a2.084 2.084 0 0 1 1.518 1.021 2.11 2.11 0 0 0 2.884.823c.044-.503.268-.973.63-1.325-2.2-.25-4.516-1.1-4.516-4.9A3.832 3.832 0 0 1 4.7 7.068a3.56 3.56 0 0 1 .095-2.623s.832-.266 2.726 1.016a9.409 9.409 0 0 1 4.962 0c1.89-1.282 2.717-1.016 2.717-1.016.366.83.402 1.768.1 2.623a3.827 3.827 0 0 1 1.02 2.659c0 3.807-2.319 4.644-4.525 4.889a2.366 2.366 0 0 1 .673 1.834c0 1.326-.012 2.394-.012 2.72 0 .263.18.572.681.475A9.911 9.911 0 0 0 10 .333Z%22 clip-rule=%22evenodd%22%3E%3C/path%3E%3C/svg%3E" preserveAspectRatio="none" clip-path="url(#satori_cp-id-0)" mask="url(#satori_om-id-0)"/><mask id="satori_om-id-0-0"><rect x="27" y="8" width="0" height="20" fill="#fff"/></mask><mask id="satori_om-id-1"><rect x="55" y="8" width="48" height="20" fill="#fff"/></mask><path fill="#fff" d="M64.8 16.2L62.6 16.2Q62.5 15.8 62.3 15.6Q62.2 15.3 61.9 15.1Q61.6 14.9 61.3 14.8Q60.9 14.7 60.5 14.7L60.5 14.7Q59.7 14.7 59.1 15.1Q58.5 15.4 58.2 16.2Q57.9 16.9 57.9 18.0L57.9 18.0Q57.9 19.1 58.2 19.8Q58.5 20.5 59.1 20.9Q59.7 21.3 60.5 21.3L60.5 21.3Q61.3 21.3 61.8 21.1Q62.3 20.8 62.6 20.3Q62.8 19.8 62.8 19.2L62.8 19.2L63.3 19.3L60.7 19.3L60.7 17.6L64.9 17.6L64.9 18.9Q64.9 20.3 64.4 21.2Q63.8 22.2 62.8 22.7Q61.8 23.2 60.5 23.2L60.5 23.2Q59.1 23.2 58.0 22.6Q56.9 22.0 56.3 20.8Q55.7 19.6 55.7 18.0L55.7 18.0Q55.7 16.8 56.1 15.8Q56.4 14.8 57.1 14.2Q57.7 13.5 58.6 13.1Q59.5 12.8 60.5 12.8L60.5 12.8Q61.3 12.8 62.1 13.0Q62.8 13.3 63.4 13.7Q64.0 14.2 64.4 14.8Q64.7 15.4 64.8 16.2L64.8 16.2ZM69.1 23.1L67.0 23.1L67.0 15.5L69.1 15.5L69.1 23.1ZM68.0 14.5L68.0 14.5Q67.6 14.5 67.2 14.2Q66.9 13.8 66.9 13.4L66.9 13.4Q66.9 13.0 67.2 12.6Q67.6 12.3 68.0 12.3L68.0 12.3Q68.5 12.3 68.8 12.6Q69.2 13.0 69.2 13.4L69.2 13.4Q69.2 13.8 68.8 14.2Q68.5 14.5 68.0 14.5ZM70.2 15.5L74.8 15.5L74.8 17.0L70.2 17.0L70.2 15.5ZM71.3 21.0L71.3 13.6L73.4 13.6L73.4 20.7Q73.4 21.0 73.5 21.2Q73.6 21.4 73.7 21.4Q73.9 21.5 74.1 21.5L74.1 21.5Q74.3 21.5 74.4 21.5Q74.6 21.4 74.6 21.4L74.6 21.4L75.0 23.0Q74.8 23.0 74.5 23.1Q74.2 23.2 73.8 23.2L73.8 23.2Q73.1 23.2 72.5 23.0Q71.9 22.8 71.6 22.3Q71.3 21.8 71.3 21.0L71.3 21.0ZM78.6 23.1L76.4 23.1L76.4 12.9L78.6 12.9L78.6 17.1L82.9 17.1L82.9 12.9L85.1 12.9L85.1 23.1L82.9 23.1L82.9 18.9L78.6 18.9L78.6 23.1ZM91.7 19.8L91.7 19.8L91.7 15.5L93.8 15.5L93.8 23.1L91.8 23.1L91.8 21.7L91.7 21.7Q91.5 22.4 90.9 22.8Q90.3 23.2 89.4 23.2L89.4 23.2Q88.6 23.2 88.1 22.8Q87.5 22.5 87.2 21.9Q86.8 21.2 86.8 20.3L86.8 20.3L86.8 15.5L88.9 15.5L88.9 19.9Q88.9 20.6 89.3 21.0Q89.7 21.4 90.3 21.4L90.3 21.4Q90.6 21.4 91.0 21.2Q91.3 21.0 91.5 20.7Q91.7 20.4 91.7 19.8ZM97.7 23.1L95.6 23.1L95.6 12.9L97.7 12.9L97.7 16.7L97.8 16.7Q97.9 16.4 98.2 16.1Q98.4 15.8 98.9 15.6Q99.3 15.4 99.9 15.4L99.9 15.4Q100.8 15.4 101.5 15.8Q102.2 16.2 102.6 17.1Q103.0 18.0 103.0 19.3L103.0 19.3Q103.0 20.6 102.6 21.4Q102.2 22.3 101.5 22.8Q100.8 23.2 99.9 23.2L99.9 23.2Q99.3 23.2 98.9 23.0Q98.4 22.8 98.2 22.5Q97.9 22.2 97.8 21.9L97.8 21.9L97.7 21.9L97.7 23.1ZM97.6 19.3L97.6 19.3Q97.6 20.0 97.8 20.5Q98.0 21.0 98.4 21.2Q98.7 21.5 99.2 21.5L99.2 21.5Q99.8 21.5 100.1 21.2Q100.5 21.0 100.7 20.4Q100.9 19.9 100.9 19.3L100.9 19.3Q100.9 18.6 100.7 18.1Q100.5 17.6 100.1 17.3Q99.8 17.0 99.2 17.0L99.2 17.0Q98.7 17.0 98.4 17.3Q98.0 17.6 97.8 18.1Q97.6 18.6 97.6 19.3Z "/></svg>