<svg width="150" height="40" viewBox="0 0 150 40" xmlns="http://www.w3.org/2000/svg"><mask id="satori_om-id"><rect x="0" y="0" width="150" height="40" fill="#fff"/></mask><path x="0" y="0" width="150" height="40" fill="#24292F" d="M20,0 h110 a20,20 0 0 1 20,20 v0 a20,20 0 0 1 -20,20 h-110 a20,20 0 0 1 -20,-20 v0 a20,20 0 0 1 20,-20"/><clipPath id="satori_cp-id-0"><rect x="29" y="8" width="24" height="24"/></clipPath><mask id="satori_om-id-0"><rect x="29" y="8" width="24" height="24" fill="#fff"/></mask><image x="29" y="8" width="24" height="24" href="data:image/svg+xml;utf8,%3Csvg  tw=%22w-6 h-6 mr-2%22 aria-hidden=%22true%22 xmlns=%22http://www.w3.org/2000/svg%22 fill=%22%23fff%22 width=%22null%22 height=%22null%22 viewBox=%220 0 20 20%22%3E%3Cpath fill-rule=%22evenodd%22 d=%22M10 .333A9.911 9.911 0 0 0 6.866 19.65c.5.092.678-.215.678-.477 0-.237-.01-1.017-.014-1.845-2.757.6-3.338-1.169-3.338-1.169a2.627 2.627 0 0 0-1.1-1.451c-.9-.615.07-.6.07-.6a2.084 2.084 0 0 1 1.518 1.021 2.11 2.11 0 0 0 2.884.823c.044-.503.268-.973.63-1.325-2.2-.25-4.516-1.1-4.516-4.9A3.832 3.832 0 0 1 4.7 7.068a3.56 3.56 0 0 1 .095-2.623s.832-.266 2.726 1.016a9.409 9.409 0 0 1 4.962 0c1.89-1.282 2.717-1.016 2.717-1.016.366.83.402 1.768.1 2.623a3.827 3.827 0 0 1 1.02 2.659c0 3.807-2.319 4.644-4.525 4.889a2.366 2.366 0 0 1 .673 1.834c0 1.326-.012 2.394-.012 2.72 0 .263.18.572.681.475A9.911 9.911 0 0 0 10 .333Z%22 clip-rule=%22evenodd%22%3E%3C/path%3E%3C/svg%3E" preserveAspectRatio="none" clip-path="url(#satori_cp-id-0)" mask="url(#satori_om-id-0)"/><mask id="satori_om-id-0-0"><rect x="29" y="8" width="0" height="24" fill="#fff"/></mask><mask id="satori_om-id-1"><rect x="61" y="10" width="60" height="20" fill="#fff"/></mask><path fill="#fff" d="M70.8 18.2L68.6 18.2Q68.5 17.8 68.3 17.6Q68.2 17.3 67.9 17.1Q67.6 16.9 67.3 16.8Q66.9 16.7 66.5 16.7L66.5 16.7Q65.7 16.7 65.1 17.1Q64.5 17.4 64.2 18.2Q63.9 18.9 63.9 20.0L63.9 20.0Q63.9 21.1 64.2 21.8Q64.5 22.5 65.1 22.9Q65.7 23.3 66.5 23.3L66.5 23.3Q67.3 23.3 67.8 23.1Q68.3 22.8 68.6 22.3Q68.8 21.8 68.8 21.2L68.8 21.2L69.3 21.3L66.7 21.3L66.7 19.6L70.9 19.6L70.9 20.9Q70.9 22.3 70.4 23.2Q69.8 24.2 68.8 24.7Q67.8 25.2 66.5 25.2L66.5 25.2Q65.1 25.2 64.0 24.6Q62.9 24.0 62.3 22.8Q61.7 21.6 61.7 20.0L61.7 20.0Q61.7 18.8 62.1 17.8Q62.4 16.8 63.1 16.2Q63.7 15.5 64.6 15.1Q65.5 14.8 66.5 14.8L66.5 14.8Q67.3 14.8 68.1 15.0Q68.8 15.3 69.4 15.7Q70.0 16.2 70.4 16.8Q70.7 17.4 70.8 18.2L70.8 18.2ZM77.1 25.1L75.0 25.1L75.0 17.5L77.1 17.5L77.1 25.1ZM76.0 16.5L76.0 16.5Q75.6 16.5 75.2 16.2Q74.9 15.8 74.9 15.4L74.9 15.4Q74.9 15.0 75.2 14.6Q75.6 14.3 76.0 14.3L76.0 14.3Q76.5 14.3 76.8 14.6Q77.2 15.0 77.2 15.4L77.2 15.4Q77.2 15.8 76.8 16.2Q76.5 16.5 76.0 16.5ZM80.2 17.5L84.8 17.5L84.8 19.0L80.2 19.0L80.2 17.5ZM81.3 23.0L81.3 15.6L83.4 15.6L83.4 22.7Q83.4 23.0 83.5 23.2Q83.6 23.4 83.7 23.4Q83.9 23.5 84.1 23.5L84.1 23.5Q84.3 23.5 84.4 23.5Q84.6 23.4 84.6 23.4L84.6 23.4L85.0 25.0Q84.8 25.0 84.5 25.1Q84.2 25.2 83.8 25.2L83.8 25.2Q83.1 25.2 82.5 25.0Q81.9 24.8 81.6 24.3Q81.3 23.8 81.3 23.0L81.3 23.0ZM90.6 25.1L88.4 25.1L88.4 14.9L90.6 14.9L90.6 19.1L94.9 19.1L94.9 14.9L97.1 14.9L97.1 25.1L94.9 25.1L94.9 20.9L90.6 20.9L90.6 25.1ZM105.7 21.8L105.7 21.8L105.7 17.5L107.8 17.5L107.8 25.1L105.8 25.1L105.8 23.7L105.7 23.7Q105.5 24.4 104.9 24.8Q104.3 25.2 103.4 25.2L103.4 25.2Q102.6 25.2 102.1 24.8Q101.5 24.5 101.2 23.9Q100.8 23.2 100.8 22.3L100.8 22.3L100.8 17.5L102.9 17.5L102.9 21.9Q102.9 22.6 103.3 23.0Q103.7 23.4 104.3 23.4L104.3 23.4Q104.6 23.4 105.0 23.2Q105.3 23.0 105.5 22.7Q105.7 22.4 105.7 21.8ZM113.7 25.1L111.6 25.1L111.6 14.9L113.7 14.9L113.7 18.7L113.8 18.7Q113.9 18.4 114.2 18.1Q114.4 17.8 114.9 17.6Q115.3 17.4 115.9 17.4L115.9 17.4Q116.8 17.4 117.5 17.8Q118.2 18.2 118.6 19.1Q119.0 20.0 119.0 21.3L119.0 21.3Q119.0 22.6 118.6 23.4Q118.2 24.3 117.5 24.8Q116.8 25.2 115.9 25.2L115.9 25.2Q115.3 25.2 114.9 25.0Q114.4 24.8 114.2 24.5Q113.9 24.2 113.8 23.9L113.8 23.9L113.7 23.9L113.7 25.1ZM113.6 21.3L113.6 21.3Q113.6 22.0 113.8 22.5Q114.0 23.0 114.4 23.2Q114.7 23.5 115.2 23.5L115.2 23.5Q115.8 23.5 116.1 23.2Q116.5 23.0 116.7 22.4Q116.9 21.9 116.9 21.3L116.9 21.3Q116.9 20.6 116.7 20.1Q116.5 19.6 116.1 19.3Q115.8 19.0 115.2 19.0L115.2 19.0Q114.7 19.0 114.4 19.3Q114.0 19.6 113.8 20.1Q113.6 20.6 113.6 21.3Z "/></svg>