<svg width="170" height="40" viewBox="0 0 170 40" xmlns="http://www.w3.org/2000/svg"><mask id="satori_om-id"><rect x="0" y="0" width="170" height="40" fill="#fff"/></mask><path x="0" y="0" width="170" height="40" fill="#1fd76c" d="M20,0 h130 a20,20 0 0 1 20,20 v0 a20,20 0 0 1 -20,20 h-130 a20,20 0 0 1 -20,-20 v0 a20,20 0 0 1 20,-20"/><clipPath id="satori_cp-id-0"><rect x="20" y="8" width="24" height="24"/></clipPath><mask id="satori_om-id-0"><rect x="20" y="8" width="24" height="24" fill="#fff"/></mask><image x="20" y="8" width="24" height="24" href="data:image/svg+xml;utf8,%3Csvg  tw=%22mr-2%22 fill=%22%23000000%22 role=%22img%22 xmlns=%22http://www.w3.org/2000/svg%22 width=%22null%22 height=%22null%22 viewBox=%220 0 24 24%22%3E%3Cg id=%22SVGRepo_bgCarrier%22 stroke-width=%220%22%3E%3C/g%3E%3Cg id=%22SVGRepo_tracerCarrier%22 stroke-linecap=%22round%22 stroke-linejoin=%22round%22%3E%3C/g%3E%3Cg id=%22SVGRepo_iconCarrier%22%3E%3Cpath d=%22M0 0v24h24V0zm9.95 8.002h1.805c.061 0 .111.05.111.111v7.767c0 .061-.05.111-.11.111H9.95a.111.111 0 0 1-.111-.11v-2.87H7.894v2.87c0 .06-.05.11-.11.11H5.976a.11.11 0 0 1-.11-.11V8.112c0-.06.05-.11.11-.11h1.806c.061 0 .11.05.11.11v2.869H9.84v-2.87c0-.06.05-.11.11-.11zm2.999 0h5.778c.061 0 .111.05.111.11v7.767a.11.11 0 0 1-.11.112h-5.78a.11.11 0 0 1-.11-.11v-7.77c0-.06.05-.11.11-.11z%22%3E%3C/path%3E%3C/g%3E%3C/svg%3E" preserveAspectRatio="none" clip-path="url(#satori_cp-id-0)" mask="url(#satori_om-id-0)"/><mask id="satori_om-id-0-0"><rect x="20" y="8" width="0" height="24" fill="#fff"/></mask><mask id="satori_om-id-0-1"><rect x="20" y="8" width="0" height="24" fill="#fff"/></mask><mask id="satori_om-id-0-2"><rect x="20" y="8" width="0" height="24" fill="#fff"/></mask><mask id="satori_om-id-0-2-0"><rect x="20" y="8" width="0" height="24" fill="#fff"/></mask><mask id="satori_om-id-1"><rect x="52" y="10" width="99" height="20" fill="#fff"/></mask><path fill="#000" d="M55.0 25.1L52.9 25.1L52.9 14.9L55.0 14.9L55.0 19.1L59.4 19.1L59.4 14.9L61.6 14.9L61.6 25.1L59.4 25.1L59.4 20.9L55.0 20.9L55.0 25.1ZM67.0 25.2L67.0 25.2Q66.2 25.2 65.7 25.0Q65.1 24.7 64.8 24.2Q64.4 23.7 64.4 23.0L64.4 23.0Q64.4 22.3 64.7 21.9Q64.9 21.5 65.3 21.2Q65.7 20.9 66.2 20.8Q66.7 20.7 67.3 20.6L67.3 20.6Q68.0 20.5 68.4 20.5Q68.8 20.4 69.0 20.3Q69.2 20.2 69.2 19.9L69.2 19.9L69.2 19.9Q69.2 19.4 68.9 19.2Q68.6 18.9 68.0 18.9L68.0 18.9Q67.4 18.9 67.1 19.2Q66.8 19.4 66.7 19.8L66.7 19.8L64.7 19.6Q64.9 18.9 65.3 18.4Q65.7 17.9 66.4 17.6Q67.1 17.4 68.0 17.4L68.0 17.4Q68.7 17.4 69.2 17.5Q69.8 17.7 70.3 18.0Q70.7 18.3 71.0 18.8Q71.3 19.3 71.3 19.9L71.3 19.9L71.3 25.1L69.3 25.1L69.3 24.0L69.2 24.0Q69.0 24.4 68.7 24.7Q68.4 24.9 68.0 25.1Q67.5 25.2 67.0 25.2ZM67.6 23.8L67.6 23.8Q68.0 23.8 68.4 23.6Q68.8 23.4 69.0 23.1Q69.2 22.8 69.2 22.4L69.2 22.4L69.2 21.6Q69.1 21.6 68.9 21.7Q68.7 21.7 68.5 21.8Q68.3 21.8 68.1 21.8Q67.9 21.9 67.7 21.9L67.7 21.9Q67.3 21.9 67.0 22.1Q66.8 22.2 66.6 22.4Q66.5 22.6 66.5 22.9L66.5 22.9Q66.5 23.3 66.8 23.5Q67.1 23.8 67.6 23.8ZM77.9 25.2L77.9 25.2Q76.7 25.2 75.8 24.7Q75.0 24.2 74.6 23.4Q74.1 22.5 74.1 21.3L74.1 21.3Q74.1 20.1 74.6 19.2Q75.0 18.4 75.9 17.9Q76.7 17.4 77.9 17.4L77.9 17.4Q78.9 17.4 79.6 17.7Q80.4 18.1 80.8 18.7Q81.2 19.4 81.3 20.3L81.3 20.3L79.3 20.3Q79.2 19.7 78.8 19.4Q78.5 19.0 77.9 19.0L77.9 19.0Q77.4 19.0 77.0 19.3Q76.7 19.5 76.5 20.0Q76.3 20.6 76.3 21.3L76.3 21.3Q76.3 22.0 76.5 22.5Q76.7 23.0 77.0 23.3Q77.4 23.6 77.9 23.6L77.9 23.6Q78.3 23.6 78.5 23.4Q78.8 23.3 79.0 23.0Q79.2 22.7 79.3 22.3L79.3 22.3L81.3 22.3Q81.2 23.2 80.8 23.8Q80.4 24.5 79.6 24.9Q78.9 25.2 77.9 25.2ZM87.5 21.3L86.1 22.9L86.1 20.4L86.4 20.4L88.8 17.5L91.2 17.5L88.0 21.3L87.5 21.3ZM86.3 25.1L84.1 25.1L84.1 14.9L86.3 14.9L86.3 25.1ZM91.4 25.1L88.9 25.1L86.7 21.8L88.1 20.3L91.4 25.1ZM96.9 25.2L96.9 25.2Q95.8 25.2 94.9 24.8Q94.1 24.3 93.6 23.4Q93.2 22.5 93.2 21.3L93.2 21.3Q93.2 20.1 93.6 19.2Q94.1 18.3 94.9 17.9Q95.7 17.4 96.9 17.4L96.9 17.4Q97.6 17.4 98.3 17.6Q98.9 17.8 99.4 18.3Q99.9 18.8 100.2 19.5Q100.4 20.3 100.4 21.2L100.4 21.2L100.4 21.8L94.0 21.8L94.0 20.5L98.5 20.5Q98.5 20.0 98.3 19.7Q98.1 19.3 97.7 19.1Q97.4 18.9 96.9 18.9L96.9 18.9Q96.4 18.9 96.0 19.2Q95.7 19.4 95.5 19.7Q95.3 20.1 95.2 20.6L95.2 20.6L95.2 21.8Q95.2 22.4 95.5 22.8Q95.7 23.2 96.1 23.4Q96.4 23.7 97.0 23.7L97.0 23.7Q97.3 23.7 97.6 23.6Q97.9 23.5 98.1 23.3Q98.3 23.1 98.4 22.8L98.4 22.8L100.4 22.9Q100.3 23.6 99.8 24.1Q99.3 24.7 98.6 24.9Q97.9 25.2 96.9 25.2ZM105.4 25.1L103.3 25.1L103.3 17.5L105.4 17.5L105.4 18.8L105.5 18.8Q105.7 18.1 106.2 17.7Q106.7 17.3 107.3 17.3L107.3 17.3Q107.5 17.3 107.6 17.4Q107.8 17.4 108.0 17.4L108.0 17.4L108.0 19.3Q107.8 19.3 107.6 19.2Q107.3 19.2 107.1 19.2L107.1 19.2Q106.6 19.2 106.2 19.4Q105.9 19.6 105.7 19.9Q105.4 20.3 105.4 20.8L105.4 20.8L105.4 25.1ZM112.7 25.1L110.6 25.1L110.6 14.9L114.6 14.9Q115.8 14.9 116.6 15.3Q117.4 15.7 117.8 16.5Q118.3 17.2 118.3 18.2L118.3 18.2Q118.3 19.2 117.8 20.0Q117.4 20.7 116.6 21.1Q115.7 21.5 114.6 21.5L114.6 21.5L111.9 21.5L111.9 19.8L114.2 19.8Q114.8 19.8 115.2 19.6Q115.6 19.4 115.8 19.1Q116.0 18.7 116.0 18.2L116.0 18.2Q116.0 17.7 115.8 17.4Q115.6 17.0 115.2 16.9Q114.8 16.7 114.2 16.7L114.2 16.7L112.7 16.7L112.7 25.1ZM113.8 20.5L116.1 20.5L118.6 25.1L116.2 25.1L113.8 20.5ZM123.4 25.2L123.4 25.2Q122.7 25.2 122.1 25.0Q121.5 24.7 121.2 24.2Q120.9 23.7 120.9 23.0L120.9 23.0Q120.9 22.3 121.1 21.9Q121.3 21.5 121.8 21.2Q122.2 20.9 122.7 20.8Q123.2 20.7 123.8 20.6L123.8 20.6Q124.4 20.5 124.8 20.5Q125.2 20.4 125.4 20.3Q125.6 20.2 125.6 19.9L125.6 19.9L125.6 19.9Q125.6 19.4 125.3 19.2Q125.0 18.9 124.5 18.9L124.5 18.9Q123.9 18.9 123.6 19.2Q123.2 19.4 123.1 19.8L123.1 19.8L121.1 19.6Q121.3 18.9 121.7 18.4Q122.2 17.9 122.9 17.6Q123.6 17.4 124.5 17.4L124.5 17.4Q125.1 17.4 125.7 17.5Q126.3 17.7 126.7 18.0Q127.2 18.3 127.5 18.8Q127.7 19.3 127.7 19.9L127.7 19.9L127.7 25.1L125.7 25.1L125.7 24.0L125.6 24.0Q125.5 24.4 125.2 24.7Q124.8 24.9 124.4 25.1Q124.0 25.2 123.4 25.2ZM124.0 23.8L124.0 23.8Q124.5 23.8 124.8 23.6Q125.2 23.4 125.4 23.1Q125.6 22.8 125.6 22.4L125.6 22.4L125.6 21.6Q125.5 21.6 125.3 21.7Q125.2 21.7 125.0 21.8Q124.7 21.8 124.5 21.8Q124.3 21.9 124.1 21.9L124.1 21.9Q123.8 21.9 123.5 22.1Q123.2 22.2 123.1 22.4Q122.9 22.6 122.9 22.9L122.9 22.9Q122.9 23.3 123.2 23.5Q123.5 23.8 124.0 23.8ZM133.0 20.7L133.0 20.7L133.0 25.1L130.9 25.1L130.9 17.5L132.9 17.5L132.9 18.8L133.0 18.8Q133.2 18.1 133.8 17.7Q134.4 17.4 135.3 17.4L135.3 17.4Q136.1 17.4 136.7 17.7Q137.2 18.1 137.6 18.7Q137.9 19.3 137.9 20.2L137.9 20.2L137.9 25.1L135.8 25.1L135.8 20.6Q135.8 19.9 135.4 19.5Q135.1 19.1 134.4 19.1L134.4 19.1Q134 19.1 133.7 19.3Q133.3 19.5 133.2 19.8Q133.0 20.2 133.0 20.7ZM144.4 21.3L143.0 22.9L143.0 20.4L143.3 20.4L145.7 17.5L148.2 17.5L144.9 21.3L144.4 21.3ZM143.2 25.1L141.1 25.1L141.1 14.9L143.2 14.9L143.2 25.1ZM148.3 25.1L145.8 25.1L143.6 21.8L145.0 20.3L148.3 25.1Z "/></svg>