<svg width="150" height="40" viewBox="0 0 150 40" xmlns="http://www.w3.org/2000/svg"><mask id="satori_om-id"><rect x="0" y="0" width="150" height="40" fill="#fff"/></mask><path x="0" y="0" width="150" height="40" fill="#ffb03c" d="M20,0 h110 a20,20 0 0 1 20,20 v0 a20,20 0 0 1 -20,20 h-110 a20,20 0 0 1 -20,-20 v0 a20,20 0 0 1 20,-20"/><clipPath id="satori_cp-id-0"><rect x="20" y="8" width="24" height="24"/></clipPath><mask id="satori_om-id-0"><rect x="20" y="8" width="24" height="24" fill="#fff"/></mask><image x="20" y="8" width="24" height="24" href="data:image/svg+xml;utf8,%3Csvg  tw=%22w-6 h-6 mr-2%22 fill=%22%23000000%22 xmlns=%22http://www.w3.org/2000/svg%22 width=%22null%22 height=%22null%22 viewBox=%220 0 32 32%22%3E%3Cg id=%22SVGRepo_bgCarrier%22 stroke-width=%220%22%3E%3C/g%3E%3Cg id=%22SVGRepo_tracerCarrier%22 stroke-linecap=%22round%22 stroke-linejoin=%22round%22%3E%3C/g%3E%3Cg id=%22SVGRepo_iconCarrier%22%3E %3Cpath d=%22M21.469 23.907l-3.595 3.473c-0.624 0.625-1.484 0.885-2.432 0.885s-1.807-0.26-2.432-0.885l-5.776-5.812c-0.62-0.625-0.937-1.537-0.937-2.485 0-0.952 0.317-1.812 0.937-2.432l5.76-5.844c0.62-0.619 1.5-0.859 2.448-0.859s1.808 0.26 2.432 0.885l3.595 3.473c0.687 0.688 1.823 0.663 2.536-0.052 0.708-0.713 0.735-1.848 0.047-2.536l-3.473-3.511c-0.901-0.891-2.032-1.505-3.261-1.787l3.287-3.333c0.688-0.687 0.667-1.823-0.047-2.536s-1.849-0.735-2.536-0.052l-13.469 13.469c-1.307 1.312-1.989 3.113-1.989 5.113 0 1.996 0.683 3.86 1.989 5.168l5.797 5.812c1.307 1.307 3.115 1.937 5.115 1.937 1.995 0 3.801-0.683 5.109-1.989l3.479-3.521c0.688-0.683 0.661-1.817-0.052-2.531s-1.849-0.74-2.531-0.052zM27.749 17.349h-13.531c-0.932 0-1.692 0.801-1.692 1.791 0 0.991 0.76 1.797 1.692 1.797h13.531c0.933 0 1.693-0.807 1.693-1.797 0-0.989-0.76-1.791-1.693-1.791z%22%3E%3C/path%3E %3C/g%3E%3C/svg%3E" preserveAspectRatio="none" clip-path="url(#satori_cp-id-0)" mask="url(#satori_om-id-0)"/><mask id="satori_om-id-0-0"><rect x="20" y="8" width="0" height="24" fill="#fff"/></mask><mask id="satori_om-id-0-1"><rect x="20" y="8" width="0" height="24" fill="#fff"/></mask><mask id="satori_om-id-0-2"><rect x="20" y="8" width="0" height="24" fill="#fff"/></mask><mask id="satori_om-id-0-2-1"><rect x="20" y="8" width="0" height="24" fill="#fff"/></mask><mask id="satori_om-id-1"><rect x="52" y="10" width="79" height="20" fill="#fff"/></mask><path fill="#000" d="M59.4 25.1L52.9 25.1L52.9 14.9L55.0 14.9L55.0 23.3L59.4 23.3L59.4 25.1ZM65.8 25.2L65.8 25.2Q64.6 25.2 63.7 24.8Q62.9 24.3 62.4 23.4Q62.0 22.5 62.0 21.3L62.0 21.3Q62.0 20.1 62.4 19.2Q62.9 18.3 63.7 17.9Q64.6 17.4 65.7 17.4L65.7 17.4Q66.4 17.4 67.1 17.6Q67.7 17.8 68.2 18.3Q68.7 18.8 69.0 19.5Q69.3 20.3 69.3 21.2L69.3 21.2L69.3 21.8L62.8 21.8L62.8 20.5L67.3 20.5Q67.3 20.0 67.1 19.7Q66.9 19.3 66.5 19.1Q66.2 18.9 65.7 18.9L65.7 18.9Q65.2 18.9 64.9 19.2Q64.5 19.4 64.3 19.7Q64.1 20.1 64.1 20.6L64.1 20.6L64.1 21.8Q64.1 22.4 64.3 22.8Q64.5 23.2 64.9 23.4Q65.3 23.7 65.8 23.7L65.8 23.7Q66.2 23.7 66.5 23.6Q66.7 23.5 67.0 23.3Q67.2 23.1 67.3 22.8L67.3 22.8L69.2 22.9Q69.1 23.6 68.6 24.1Q68.2 24.7 67.4 24.9Q66.7 25.2 65.8 25.2ZM75.6 25.2L75.6 25.2Q74.5 25.2 73.6 24.8Q72.8 24.3 72.3 23.4Q71.8 22.5 71.8 21.3L71.8 21.3Q71.8 20.1 72.3 19.2Q72.8 18.3 73.6 17.9Q74.4 17.4 75.6 17.4L75.6 17.4Q76.3 17.4 77.0 17.6Q77.6 17.8 78.1 18.3Q78.6 18.8 78.9 19.5Q79.1 20.3 79.1 21.2L79.1 21.2L79.1 21.8L72.7 21.8L72.7 20.5L77.1 20.5Q77.1 20.0 76.9 19.7Q76.8 19.3 76.4 19.1Q76.0 18.9 75.6 18.9L75.6 18.9Q75.1 18.9 74.7 19.2Q74.4 19.4 74.2 19.7Q73.9 20.1 73.9 20.6L73.9 20.6L73.9 21.8Q73.9 22.4 74.2 22.8Q74.4 23.2 74.8 23.4Q75.1 23.7 75.7 23.7L75.7 23.7Q76.0 23.7 76.3 23.6Q76.6 23.5 76.8 23.3Q77.0 23.1 77.1 22.8L77.1 22.8L79.1 22.9Q78.9 23.6 78.5 24.1Q78.0 24.7 77.3 24.9Q76.6 25.2 75.6 25.2ZM81.5 17.5L86.1 17.5L86.1 19.0L81.5 19.0L81.5 17.5ZM82.5 23.0L82.5 15.6L84.6 15.6L84.6 22.7Q84.6 23.0 84.7 23.2Q84.8 23.4 85.0 23.4Q85.2 23.5 85.4 23.5L85.4 23.5Q85.5 23.5 85.7 23.5Q85.8 23.4 85.9 23.4L85.9 23.4L86.2 25.0Q86.1 25.0 85.8 25.1Q85.5 25.2 85.1 25.2L85.1 25.2Q84.3 25.2 83.7 25.0Q83.2 24.8 82.8 24.3Q82.5 23.8 82.5 23.0L82.5 23.0ZM98.0 18.5L98.0 18.5L95.8 18.5Q95.7 18.1 95.6 17.7Q95.4 17.4 95.1 17.2Q94.8 16.9 94.4 16.8Q94.1 16.7 93.6 16.7L93.6 16.7Q92.8 16.7 92.2 17.1Q91.7 17.5 91.3 18.2Q91.0 18.9 91.0 20L91.0 20Q91.0 21.1 91.3 21.8Q91.7 22.6 92.2 22.9Q92.8 23.3 93.6 23.3L93.6 23.3Q94.0 23.3 94.4 23.2Q94.8 23.1 95.1 22.9Q95.4 22.7 95.5 22.3Q95.7 22.0 95.8 21.6L95.8 21.6L98.0 21.6Q97.9 22.3 97.6 23.0Q97.2 23.6 96.7 24.1Q96.1 24.6 95.3 24.9Q94.5 25.2 93.6 25.2L93.6 25.2Q92.2 25.2 91.1 24.6Q90.1 24.0 89.4 22.8Q88.8 21.7 88.8 20L88.8 20Q88.8 18.3 89.5 17.2Q90.1 16.0 91.2 15.4Q92.2 14.8 93.6 14.8L93.6 14.8Q94.5 14.8 95.2 15.0Q96.0 15.3 96.6 15.7Q97.1 16.2 97.5 16.9Q97.9 17.6 98.0 18.5ZM104.4 25.2L104.4 25.2Q103.3 25.2 102.4 24.7Q101.6 24.3 101.1 23.4Q100.7 22.5 100.7 21.3L100.7 21.3Q100.7 20.1 101.1 19.2Q101.6 18.3 102.4 17.8Q103.3 17.4 104.4 17.4L104.4 17.4Q105.6 17.4 106.4 17.8Q107.3 18.3 107.7 19.2Q108.2 20.1 108.2 21.3L108.2 21.3Q108.2 22.5 107.7 23.4Q107.3 24.3 106.4 24.7Q105.6 25.2 104.4 25.2ZM104.5 23.6L104.5 23.6Q105.0 23.6 105.3 23.3Q105.7 23.0 105.9 22.5Q106.0 22.0 106.0 21.3L106.0 21.3Q106.0 20.6 105.9 20.1Q105.7 19.6 105.3 19.3Q105.0 19.0 104.5 19.0L104.5 19.0Q103.9 19.0 103.6 19.3Q103.2 19.6 103.0 20.1Q102.8 20.6 102.8 21.3L102.8 21.3Q102.8 22.0 103.0 22.5Q103.2 23.0 103.6 23.3Q103.9 23.6 104.5 23.6ZM113.9 25.2L113.9 25.2Q113.0 25.2 112.3 24.8Q111.6 24.3 111.2 23.4Q110.8 22.6 110.8 21.3L110.8 21.3Q110.8 20.0 111.2 19.1Q111.6 18.2 112.3 17.8Q113.1 17.4 113.9 17.4L113.9 17.4Q114.5 17.4 115.0 17.6Q115.4 17.8 115.7 18.1Q115.9 18.4 116.1 18.7L116.1 18.7L116.1 18.7L116.1 14.9L118.2 14.9L118.2 25.1L116.2 25.1L116.2 23.9L116.1 23.9Q115.9 24.2 115.6 24.5Q115.4 24.8 114.9 25.0Q114.5 25.2 113.9 25.2ZM114.6 23.5L114.6 23.5Q115.1 23.5 115.4 23.2Q115.8 23.0 116.0 22.5Q116.2 22.0 116.2 21.3L116.2 21.3Q116.2 20.6 116.0 20.1Q115.8 19.6 115.4 19.3Q115.1 19.0 114.6 19.0L114.6 19.0Q114.0 19.0 113.7 19.3Q113.3 19.6 113.1 20.1Q113.0 20.6 113.0 21.3L113.0 21.3Q113.0 21.9 113.1 22.4Q113.3 23.0 113.7 23.2Q114.0 23.5 114.6 23.5ZM125.0 25.2L125.0 25.2Q123.8 25.2 122.9 24.8Q122.1 24.3 121.6 23.4Q121.2 22.5 121.2 21.3L121.2 21.3Q121.2 20.1 121.6 19.2Q122.1 18.3 122.9 17.9Q123.8 17.4 124.9 17.4L124.9 17.4Q125.6 17.4 126.3 17.6Q126.9 17.8 127.4 18.3Q127.9 18.8 128.2 19.5Q128.5 20.3 128.5 21.2L128.5 21.2L128.5 21.8L122.0 21.8L122.0 20.5L126.5 20.5Q126.5 20.0 126.3 19.7Q126.1 19.3 125.7 19.1Q125.4 18.9 124.9 18.9L124.9 18.9Q124.4 18.9 124.1 19.2Q123.7 19.4 123.5 19.7Q123.3 20.1 123.3 20.6L123.3 20.6L123.3 21.8Q123.3 22.4 123.5 22.8Q123.7 23.2 124.1 23.4Q124.5 23.7 125.0 23.7L125.0 23.7Q125.3 23.7 125.6 23.6Q125.9 23.5 126.1 23.3Q126.4 23.1 126.5 22.8L126.5 22.8L128.4 22.9Q128.3 23.6 127.8 24.1Q127.3 24.7 126.6 24.9Q125.9 25.2 125.0 25.2Z "/></svg>