<svg width="150" height="40" viewBox="0 0 150 40" xmlns="http://www.w3.org/2000/svg"><mask id="satori_om-id"><rect x="0" y="0" width="150" height="40" fill="#fff"/></mask><path x="0" y="0" width="150" height="40" fill="#20a8ee" d="M20,0 h110 a20,20 0 0 1 20,20 v0 a20,20 0 0 1 -20,20 h-110 a20,20 0 0 1 -20,-20 v0 a20,20 0 0 1 20,-20"/><clipPath id="satori_cp-id-0"><rect x="22" y="6" width="28" height="28"/></clipPath><mask id="satori_om-id-0"><rect x="22" y="6" width="28" height="28" fill="#fff"/></mask><image x="22" y="6" width="28" height="28" href="data:image/svg+xml;utf8,%3Csvg  tw=%22w-7 h-7 mr-2%22 fill=%22%231275B1%22 xmlns=%22http://www.w3.org/2000/svg%22 class=%22cf-icon-svg%22 width=%22null%22 height=%22null%22 viewBox=%22-1.5 0 19 19%22%3E%3Cg id=%22SVGRepo_bgCarrier%22 stroke-width=%220%22%3E%3C/g%3E%3Cg id=%22SVGRepo_tracerCarrier%22 stroke-linecap=%22round%22 stroke-linejoin=%22round%22%3E%3C/g%3E%3Cg id=%22SVGRepo_iconCarrier%22%3E%3Cpath fill=%22black%22 d=%22M15.917 17.5H.083V1.666h15.834zM5.77 6.427a.96.96 0 0 0-1.032-.96.962.962 0 1 0-.025 1.92h.013a.963.963 0 0 0 1.044-.96zm-.123 1.719H3.803v5.552h1.845zm6.658 2.368c0-1.705-.91-2.5-2.125-2.5a1.832 1.832 0 0 0-1.663.917v-.786H6.67c.025.52 0 5.554 0 5.554h1.848v-3.102a1.264 1.264 0 0 1 .06-.45 1.011 1.011 0 0 1 .946-.676c.67 0 .936.51.936 1.256V13.7h1.846zm-3.8-1.564.013-.019v.019z%22%3E%3C/path%3E%3C/g%3E%3C/svg%3E" preserveAspectRatio="none" clip-path="url(#satori_cp-id-0)" mask="url(#satori_om-id-0)"/><mask id="satori_om-id-0-0"><rect x="22" y="6" width="0" height="28" fill="#fff"/></mask><mask id="satori_om-id-0-1"><rect x="22" y="6" width="0" height="28" fill="#fff"/></mask><mask id="satori_om-id-0-2"><rect x="22" y="6" width="0" height="28" fill="#fff"/></mask><mask id="satori_om-id-0-2-0"><rect x="22" y="6" width="0" height="28" fill="#fff"/></mask><mask id="satori_om-id-1"><rect x="58" y="10" width="71" height="20" fill="#fff"/></mask><path fill="#000" d="M65.4 25.1L58.9 25.1L58.9 14.9L61.0 14.9L61.0 23.3L65.4 23.3L65.4 25.1ZM70.4 25.1L68.3 25.1L68.3 17.5L70.4 17.5L70.4 25.1ZM69.4 16.5L69.4 16.5Q68.9 16.5 68.5 16.2Q68.2 15.8 68.2 15.4L68.2 15.4Q68.2 15.0 68.5 14.6Q68.9 14.3 69.4 14.3L69.4 14.3Q69.8 14.3 70.2 14.6Q70.5 15.0 70.5 15.4L70.5 15.4Q70.5 15.8 70.2 16.2Q69.8 16.5 69.4 16.5ZM75.7 20.7L75.7 20.7L75.7 25.1L73.6 25.1L73.6 17.5L75.6 17.5L75.6 18.8L75.7 18.8Q76.0 18.1 76.6 17.7Q77.2 17.4 78.0 17.4L78.0 17.4Q78.8 17.4 79.4 17.7Q80.0 18.1 80.3 18.7Q80.6 19.3 80.6 20.2L80.6 20.2L80.6 25.1L78.5 25.1L78.5 20.6Q78.5 19.9 78.2 19.5Q77.8 19.1 77.2 19.1L77.2 19.1Q76.7 19.1 76.4 19.3Q76.1 19.5 75.9 19.8Q75.7 20.2 75.7 20.7ZM87.1 21.3L85.7 22.9L85.7 20.4L86.0 20.4L88.5 17.5L90.9 17.5L87.6 21.3L87.1 21.3ZM85.9 25.1L83.8 25.1L83.8 14.9L85.9 14.9L85.9 25.1ZM91.1 25.1L88.6 25.1L86.3 21.8L87.7 20.3L91.1 25.1ZM96.6 25.2L96.6 25.2Q95.4 25.2 94.6 24.8Q93.7 24.3 93.3 23.4Q92.8 22.5 92.8 21.3L92.8 21.3Q92.8 20.1 93.3 19.2Q93.7 18.3 94.6 17.9Q95.4 17.4 96.5 17.4L96.5 17.4Q97.3 17.4 97.9 17.6Q98.6 17.8 99.1 18.3Q99.6 18.8 99.8 19.5Q100.1 20.3 100.1 21.2L100.1 21.2L100.1 21.8L93.7 21.8L93.7 20.5L98.1 20.5Q98.1 20.0 97.9 19.7Q97.7 19.3 97.4 19.1Q97.0 18.9 96.6 18.9L96.6 18.9Q96.1 18.9 95.7 19.2Q95.3 19.4 95.1 19.7Q94.9 20.1 94.9 20.6L94.9 20.6L94.9 21.8Q94.9 22.4 95.1 22.8Q95.3 23.2 95.7 23.4Q96.1 23.7 96.6 23.7L96.6 23.7Q97.0 23.7 97.3 23.6Q97.6 23.5 97.8 23.3Q98.0 23.1 98.1 22.8L98.1 22.8L100.1 22.9Q99.9 23.6 99.5 24.1Q99 24.7 98.3 24.9Q97.6 25.2 96.6 25.2ZM105.8 25.2L105.8 25.2Q104.9 25.2 104.2 24.8Q103.5 24.3 103.1 23.4Q102.7 22.6 102.7 21.3L102.7 21.3Q102.7 20.0 103.1 19.1Q103.6 18.2 104.3 17.8Q105.0 17.4 105.8 17.4L105.8 17.4Q106.4 17.4 106.9 17.6Q107.3 17.8 107.6 18.1Q107.8 18.4 108.0 18.7L108.0 18.7L108.0 18.7L108.0 14.9L110.2 14.9L110.2 25.1L108.1 25.1L108.1 23.9L108.0 23.9Q107.8 24.2 107.6 24.5Q107.3 24.8 106.9 25.0Q106.4 25.2 105.8 25.2ZM106.5 23.5L106.5 23.5Q107.0 23.5 107.3 23.2Q107.7 23.0 107.9 22.5Q108.1 22.0 108.1 21.3L108.1 21.3Q108.1 20.6 107.9 20.1Q107.7 19.6 107.4 19.3Q107.0 19.0 106.5 19.0L106.5 19.0Q106.0 19.0 105.6 19.3Q105.2 19.6 105.1 20.1Q104.9 20.6 104.9 21.3L104.9 21.3Q104.9 21.9 105.1 22.4Q105.2 23.0 105.6 23.2Q106.0 23.5 106.5 23.5ZM113.4 14.9L115.6 14.9L115.6 25.1L113.4 25.1L113.4 14.9ZM120.9 20.7L120.9 20.7L120.9 25.1L118.8 25.1L118.8 17.5L120.8 17.5L120.8 18.8L120.9 18.8Q121.2 18.1 121.8 17.7Q122.4 17.4 123.2 17.4L123.2 17.4Q124.0 17.4 124.6 17.7Q125.2 18.1 125.5 18.7Q125.9 19.3 125.9 20.2L125.9 20.2L125.9 25.1L123.7 25.1L123.7 20.6Q123.7 19.9 123.4 19.5Q123.0 19.1 122.4 19.1L122.4 19.1Q122.0 19.1 121.6 19.3Q121.3 19.5 121.1 19.8Q120.9 20.2 120.9 20.7Z "/></svg>