<svg width="150" height="40" viewBox="0 0 150 40" xmlns="http://www.w3.org/2000/svg"><mask id="satori_om-id"><rect x="0" y="0" width="150" height="40" fill="#fff"/></mask><path x="0" y="0" width="150" height="40" fill="#e4abff" d="M20,0 h110 a20,20 0 0 1 20,20 v0 a20,20 0 0 1 -20,20 h-110 a20,20 0 0 1 -20,-20 v0 a20,20 0 0 1 20,-20"/><clipPath id="satori_cp-id-0"><rect x="25" y="10" width="20" height="20"/></clipPath><mask id="satori_om-id-0"><rect x="25" y="10" width="20" height="20" fill="#fff"/></mask><image x="25" y="10" width="20" height="20" href="data:image/svg+xml;utf8,%3Csvg  tw=%22w-5 h-5 mr-2%22 fill=%22%23000000%22 xmlns=%22http://www.w3.org/2000/svg%22 width=%22null%22 height=%22null%22 viewBox=%22-32 0 512 512%22%3E%3Cg id=%22SVGRepo_bgCarrier%22 stroke-width=%220%22%3E%3C/g%3E%3Cg id=%22SVGRepo_tracerCarrier%22 stroke-linecap=%22round%22 stroke-linejoin=%22round%22%3E%3C/g%3E%3Cg id=%22SVGRepo_iconCarrier%22%3E%3Cpath d=%22M319.4 320.6L224 416l-95.4-95.4C57.1 323.7 0 382.2 0 454.4v9.6c0 26.5 21.5 48 48 48h352c26.5 0 48-21.5 48-48v-9.6c0-72.2-57.1-130.7-128.6-133.8zM13.6 79.8l6.4 1.5v58.4c-7 4.2-12 11.5-12 20.3 0 8.4 4.6 15.4 11.1 19.7L3.5 242c-1.7 6.9 2.1 14 7.6 14h41.8c5.5 0 9.3-7.1 7.6-14l-15.6-62.3C51.4 175.4 56 168.4 56 160c0-8.8-5-16.1-12-20.3V87.1l66 15.9c-8.6 17.2-14 36.4-14 57 0 70.7 57.3 128 128 128s128-57.3 128-128c0-20.6-5.3-39.8-14-57l96.3-23.2c18.2-4.4 18.2-27.1 0-31.5l-190.4-46c-13-3.1-26.7-3.1-39.7 0L13.6 48.2c-18.1 4.4-18.1 27.2 0 31.6z%22%3E%3C/path%3E%3C/g%3E%3C/svg%3E" preserveAspectRatio="none" clip-path="url(#satori_cp-id-0)" mask="url(#satori_om-id-0)"/><mask id="satori_om-id-0-0"><rect x="25" y="10" width="0" height="20" fill="#fff"/></mask><mask id="satori_om-id-0-1"><rect x="25" y="10" width="0" height="20" fill="#fff"/></mask><mask id="satori_om-id-0-2"><rect x="25" y="10" width="0" height="20" fill="#fff"/></mask><mask id="satori_om-id-0-2-0"><rect x="25" y="10" width="0" height="20" fill="#fff"/></mask><mask id="satori_om-id-1"><rect x="53" y="10" width="73" height="20" fill="#fff"/></mask><path fill="#000" d="M56.0 25.1L53.9 25.1L53.9 14.9L57.9 14.9Q59.1 14.9 59.9 15.3Q60.7 15.8 61.1 16.6Q61.6 17.3 61.6 18.4L61.6 18.4Q61.6 19.4 61.1 20.1Q60.7 20.9 59.8 21.4Q59.0 21.8 57.8 21.8L57.8 21.8L55.3 21.8L55.3 20.1L57.5 20.1Q58.1 20.1 58.5 19.8Q58.9 19.6 59.1 19.2Q59.3 18.9 59.3 18.4L59.3 18.4Q59.3 17.9 59.1 17.5Q58.9 17.1 58.5 16.9Q58.1 16.7 57.5 16.7L57.5 16.7L56.0 16.7L56.0 25.1ZM67.7 25.2L67.7 25.2Q66.6 25.2 65.7 24.7Q64.9 24.3 64.4 23.4Q64.0 22.5 64.0 21.3L64.0 21.3Q64.0 20.1 64.4 19.2Q64.9 18.3 65.7 17.8Q66.6 17.4 67.7 17.4L67.7 17.4Q68.9 17.4 69.7 17.8Q70.6 18.3 71.0 19.2Q71.5 20.1 71.5 21.3L71.5 21.3Q71.5 22.5 71.0 23.4Q70.6 24.3 69.7 24.7Q68.9 25.2 67.7 25.2ZM67.7 23.6L67.7 23.6Q68.3 23.6 68.6 23.3Q69.0 23.0 69.2 22.5Q69.3 22.0 69.3 21.3L69.3 21.3Q69.3 20.6 69.2 20.1Q69.0 19.6 68.6 19.3Q68.3 19.0 67.7 19.0L67.7 19.0Q67.2 19.0 66.9 19.3Q66.5 19.6 66.3 20.1Q66.1 20.6 66.1 21.3L66.1 21.3Q66.1 22.0 66.3 22.5Q66.5 23.0 66.9 23.3Q67.2 23.6 67.7 23.6ZM76.5 25.1L74.4 25.1L74.4 17.5L76.4 17.5L76.4 18.8L76.5 18.8Q76.7 18.1 77.2 17.7Q77.7 17.3 78.3 17.3L78.3 17.3Q78.5 17.3 78.7 17.4Q78.9 17.4 79.0 17.4L79.0 17.4L79.0 19.3Q78.9 19.3 78.6 19.2Q78.3 19.2 78.1 19.2L78.1 19.2Q77.6 19.2 77.3 19.4Q76.9 19.6 76.7 19.9Q76.5 20.3 76.5 20.8L76.5 20.8L76.5 25.1ZM81.4 17.5L86.0 17.5L86.0 19.0L81.4 19.0L81.4 17.5ZM82.5 23.0L82.5 15.6L84.6 15.6L84.6 22.7Q84.6 23.0 84.7 23.2Q84.8 23.4 84.9 23.4Q85.1 23.5 85.3 23.5L85.3 23.5Q85.5 23.5 85.6 23.5Q85.8 23.4 85.8 23.4L85.8 23.4L86.2 25.0Q86.0 25.0 85.7 25.1Q85.4 25.2 85.0 25.2L85.0 25.2Q84.3 25.2 83.7 25.0Q83.1 24.8 82.8 24.3Q82.5 23.8 82.5 23.0L82.5 23.0ZM88.3 17.5L93.0 17.5L93.0 19.0L88.3 19.0L88.3 17.5ZM91.5 25.1L89.4 25.1L89.4 16.9Q89.4 16.1 89.7 15.5Q90.0 15.0 90.6 14.7Q91.2 14.4 91.9 14.4L91.9 14.4Q92.4 14.4 92.8 14.5Q93.2 14.6 93.4 14.6L93.4 14.6L93.0 16.2Q92.9 16.2 92.7 16.2Q92.5 16.1 92.3 16.1L92.3 16.1Q91.9 16.1 91.7 16.3Q91.5 16.6 91.5 16.9L91.5 16.9L91.5 25.1ZM99.0 25.2L99.0 25.2Q97.8 25.2 97.0 24.7Q96.2 24.3 95.7 23.4Q95.2 22.5 95.2 21.3L95.2 21.3Q95.2 20.1 95.7 19.2Q96.2 18.3 97.0 17.8Q97.8 17.4 99.0 17.4L99.0 17.4Q100.2 17.4 101.0 17.8Q101.8 18.3 102.3 19.2Q102.8 20.1 102.8 21.3L102.8 21.3Q102.8 22.5 102.3 23.4Q101.8 24.3 101.0 24.7Q100.2 25.2 99.0 25.2ZM99.0 23.6L99.0 23.6Q99.5 23.6 99.9 23.3Q100.2 23.0 100.4 22.5Q100.6 22.0 100.6 21.3L100.6 21.3Q100.6 20.6 100.4 20.1Q100.2 19.6 99.9 19.3Q99.5 19.0 99.0 19.0L99.0 19.0Q98.5 19.0 98.1 19.3Q97.8 19.6 97.6 20.1Q97.4 20.6 97.4 21.3L97.4 21.3Q97.4 22.0 97.6 22.5Q97.8 23.0 98.1 23.3Q98.5 23.6 99.0 23.6ZM105.6 14.9L107.8 14.9L107.8 25.1L105.6 25.1L105.6 14.9ZM113.1 25.1L110.9 25.1L110.9 17.5L113.1 17.5L113.1 25.1ZM112.0 16.5L112.0 16.5Q111.5 16.5 111.2 16.2Q110.9 15.8 110.9 15.4L110.9 15.4Q110.9 15.0 111.2 14.6Q111.5 14.3 112.0 14.3L112.0 14.3Q112.5 14.3 112.8 14.6Q113.2 15.0 113.2 15.4L113.2 15.4Q113.2 15.8 112.8 16.2Q112.5 16.5 112.0 16.5ZM119.7 25.2L119.7 25.2Q118.5 25.2 117.7 24.7Q116.9 24.3 116.4 23.4Q115.9 22.5 115.9 21.3L115.9 21.3Q115.9 20.1 116.4 19.2Q116.9 18.3 117.7 17.8Q118.5 17.4 119.7 17.4L119.7 17.4Q120.9 17.4 121.7 17.8Q122.6 18.3 123.0 19.2Q123.5 20.1 123.5 21.3L123.5 21.3Q123.5 22.5 123.0 23.4Q122.6 24.3 121.7 24.7Q120.9 25.2 119.7 25.2ZM119.7 23.6L119.7 23.6Q120.2 23.6 120.6 23.3Q121.0 23.0 121.1 22.5Q121.3 22.0 121.3 21.3L121.3 21.3Q121.3 20.6 121.1 20.1Q121.0 19.6 120.6 19.3Q120.2 19.0 119.7 19.0L119.7 19.0Q119.2 19.0 118.8 19.3Q118.5 19.6 118.3 20.1Q118.1 20.6 118.1 21.3L118.1 21.3Q118.1 22.0 118.3 22.5Q118.5 23.0 118.8 23.3Q119.2 23.6 119.7 23.6Z "/></svg>