<svg width="150" height="40" viewBox="0 0 150 40" xmlns="http://www.w3.org/2000/svg"><mask id="satori_om-id"><rect x="0" y="0" width="150" height="40" fill="#fff"/></mask><path x="0" y="0" width="150" height="40" fill="#64e1f4" d="M20,0 h110 a20,20 0 0 1 20,20 v0 a20,20 0 0 1 -20,20 h-110 a20,20 0 0 1 -20,-20 v0 a20,20 0 0 1 20,-20"/><clipPath id="satori_cp-id-0"><rect x="27" y="8" width="24" height="24"/></clipPath><mask id="satori_om-id-0"><rect x="27" y="8" width="24" height="24" fill="#fff"/></mask><image x="27" y="8" width="24" height="24" href="data:image/svg+xml;utf8,%3Csvg  tw=%22mr-2%22 fill=%22%23000000%22 id=%22document-error-left%22 data-name=%22Flat Line%22 xmlns=%22http://www.w3.org/2000/svg%22 width=%22null%22 height=%22null%22 viewBox=%220 0 24 24%22%3E%3Cg id=%22SVGRepo_bgCarrier%22 stroke-width=%220%22%3E%3C/g%3E%3Cg id=%22SVGRepo_tracerCarrier%22 stroke-linecap=%22round%22 stroke-linejoin=%22round%22%3E%3C/g%3E%3Cg id=%22SVGRepo_iconCarrier%22%3E%3Cpath id=%22secondary%22 d=%22M18,3H7V5H5V20a1,1,0,0,0,1,1H18a1,1,0,0,0,1-1V4A1,1,0,0,0,18,3Z%22 style=%22fill:%232ca9bc;stroke-width:2%22%3E%3C/path%3E%3Cpath id=%22primary%22 d=%22M10,21h8a1,1,0,0,0,1-1V4a1,1,0,0,0-1-1H7L5,5V9%22 style=%22fill:none;stroke:%23000000;stroke-linecap:round;stroke-linejoin:round;stroke-width:2%22%3E%3C/path%3E%3Cpath id=%22primary-2%22 data-name=%22primary%22 d=%22M5,5H7V3Zm0,8v3%22 style=%22fill:none;stroke:%23000000;stroke-linecap:round;stroke-linejoin:round;stroke-width:2%22%3E%3C/path%3E%3Cline id=%22primary-upstroke%22 x1=%225.05%22 y1=%2220.5%22 x2=%224.95%22 y2=%2220.5%22 style=%22fill:none;stroke:%23000000;stroke-linecap:round;stroke-linejoin:round;stroke-width:2.5%22%3E%3C/line%3E%3C/g%3E%3C/svg%3E" preserveAspectRatio="none" clip-path="url(#satori_cp-id-0)" mask="url(#satori_om-id-0)"/><mask id="satori_om-id-0-0"><rect x="27" y="8" width="0" height="24" fill="#fff"/></mask><mask id="satori_om-id-0-1"><rect x="27" y="8" width="0" height="24" fill="#fff"/></mask><mask id="satori_om-id-0-2"><rect x="27" y="8" width="0" height="24" fill="#fff"/></mask><mask id="satori_om-id-0-2-0"><rect x="27" y="8" width="0" height="24" fill="#fff"/></mask><mask id="satori_om-id-0-2-1"><rect x="27" y="8" width="0" height="24" fill="#fff"/></mask><mask id="satori_om-id-0-2-2"><rect x="27" y="8" width="0" height="24" fill="#fff"/></mask><mask id="satori_om-id-0-2-3"><rect x="27" y="8" width="0" height="24" fill="#fff"/></mask><mask id="satori_om-id-1"><rect x="59" y="10" width="65" height="20" fill="#fff"/></mask><path fill="#000" d="M62.0 25.1L59.9 25.1L59.9 14.9L63.9 14.9Q65.1 14.9 65.9 15.3Q66.7 15.7 67.1 16.5Q67.6 17.2 67.6 18.2L67.6 18.2Q67.6 19.2 67.1 20.0Q66.7 20.7 65.8 21.1Q65.0 21.5 63.8 21.5L63.8 21.5L61.2 21.5L61.2 19.8L63.5 19.8Q64.1 19.8 64.5 19.6Q64.9 19.4 65.1 19.1Q65.3 18.7 65.3 18.2L65.3 18.2Q65.3 17.7 65.1 17.4Q64.9 17.0 64.5 16.9Q64.1 16.7 63.5 16.7L63.5 16.7L62.0 16.7L62.0 25.1ZM63.1 20.5L65.4 20.5L67.9 25.1L65.5 25.1L63.1 20.5ZM73.9 25.2L73.9 25.2Q72.7 25.2 71.9 24.8Q71.0 24.3 70.6 23.4Q70.1 22.5 70.1 21.3L70.1 21.3Q70.1 20.1 70.6 19.2Q71.0 18.3 71.8 17.9Q72.7 17.4 73.8 17.4L73.8 17.4Q74.6 17.4 75.2 17.6Q75.9 17.8 76.4 18.3Q76.8 18.8 77.1 19.5Q77.4 20.3 77.4 21.2L77.4 21.2L77.4 21.8L70.9 21.8L70.9 20.5L75.4 20.5Q75.4 20.0 75.2 19.7Q75.0 19.3 74.6 19.1Q74.3 18.9 73.8 18.9L73.8 18.9Q73.4 18.9 73.0 19.2Q72.6 19.4 72.4 19.7Q72.2 20.1 72.2 20.6L72.2 20.6L72.2 21.8Q72.2 22.4 72.4 22.8Q72.6 23.2 73.0 23.4Q73.4 23.7 73.9 23.7L73.9 23.7Q74.3 23.7 74.6 23.6Q74.9 23.5 75.1 23.3Q75.3 23.1 75.4 22.8L75.4 22.8L77.3 22.9Q77.2 23.6 76.7 24.1Q76.3 24.7 75.6 24.9Q74.8 25.2 73.9 25.2ZM86.6 19.6L86.6 19.6L84.7 19.8Q84.6 19.5 84.5 19.3Q84.3 19.1 84.0 19.0Q83.8 18.9 83.4 18.9L83.4 18.9Q82.9 18.9 82.6 19.1Q82.2 19.3 82.2 19.6L82.2 19.6Q82.2 19.9 82.5 20.1Q82.7 20.3 83.2 20.4L83.2 20.4L84.6 20.7Q85.7 20.9 86.3 21.4Q86.8 21.9 86.8 22.7L86.8 22.7Q86.8 23.5 86.4 24.0Q85.9 24.6 85.2 24.9Q84.4 25.2 83.4 25.2L83.4 25.2Q81.9 25.2 81.0 24.6Q80.1 24.0 79.9 22.9L79.9 22.9L82.0 22.8Q82.1 23.2 82.5 23.5Q82.8 23.7 83.4 23.7L83.4 23.7Q84.0 23.7 84.3 23.5Q84.6 23.3 84.6 22.9L84.6 22.9Q84.6 22.6 84.4 22.5Q84.2 22.3 83.7 22.2L83.7 22.2L82.3 21.9Q81.2 21.7 80.7 21.1Q80.1 20.6 80.1 19.7L80.1 19.7Q80.1 19.0 80.5 18.5Q80.9 17.9 81.7 17.6Q82.4 17.4 83.4 17.4L83.4 17.4Q84.8 17.4 85.7 18.0Q86.5 18.6 86.6 19.6ZM94.5 21.8L94.5 21.8L94.5 17.5L96.7 17.5L96.7 25.1L94.6 25.1L94.6 23.7L94.5 23.7Q94.3 24.4 93.7 24.8Q93.1 25.2 92.2 25.2L92.2 25.2Q91.5 25.2 90.9 24.8Q90.3 24.5 90.0 23.9Q89.6 23.2 89.6 22.3L89.6 22.3L89.6 17.5L91.8 17.5L91.8 21.9Q91.8 22.6 92.1 23.0Q92.5 23.4 93.1 23.4L93.1 23.4Q93.5 23.4 93.8 23.2Q94.1 23.0 94.3 22.7Q94.5 22.4 94.5 21.8ZM102.0 25.1L99.8 25.1L99.8 17.5L101.9 17.5L101.9 18.8L101.9 18.8Q102.2 18.1 102.7 17.7Q103.3 17.4 104.1 17.4L104.1 17.4Q104.9 17.4 105.4 17.7Q106.0 18.1 106.1 18.8L106.1 18.8L106.2 18.8Q106.5 18.1 107.1 17.8Q107.7 17.4 108.5 17.4L108.5 17.4Q109.6 17.4 110.3 18.0Q110.9 18.7 110.9 20.0L110.9 20.0L110.9 25.1L108.8 25.1L108.8 20.4Q108.8 19.7 108.5 19.4Q108.1 19.1 107.6 19.1L107.6 19.1Q107.1 19.1 106.7 19.5Q106.4 19.8 106.4 20.4L106.4 20.4L106.4 25.1L104.4 25.1L104.4 20.3Q104.4 19.8 104.0 19.4Q103.7 19.1 103.2 19.1L103.2 19.1Q102.8 19.1 102.6 19.3Q102.3 19.5 102.1 19.8Q102.0 20.1 102.0 20.5L102.0 20.5L102.0 25.1ZM117.6 25.2L117.6 25.2Q116.4 25.2 115.6 24.8Q114.7 24.3 114.3 23.4Q113.8 22.5 113.8 21.3L113.8 21.3Q113.8 20.1 114.3 19.2Q114.7 18.3 115.5 17.9Q116.4 17.4 117.5 17.4L117.5 17.4Q118.3 17.4 118.9 17.6Q119.6 17.8 120.1 18.3Q120.5 18.8 120.8 19.5Q121.1 20.3 121.1 21.2L121.1 21.2L121.1 21.8L114.6 21.8L114.6 20.5L119.1 20.5Q119.1 20.0 118.9 19.7Q118.7 19.3 118.4 19.1Q118.0 18.9 117.5 18.9L117.5 18.9Q117.1 18.9 116.7 19.2Q116.3 19.4 116.1 19.7Q115.9 20.1 115.9 20.6L115.9 20.6L115.9 21.8Q115.9 22.4 116.1 22.8Q116.3 23.2 116.7 23.4Q117.1 23.7 117.6 23.7L117.6 23.7Q118.0 23.7 118.3 23.6Q118.6 23.5 118.8 23.3Q119.0 23.1 119.1 22.8L119.1 22.8L121.0 22.9Q120.9 23.6 120.4 24.1Q120.0 24.7 119.3 24.9Q118.5 25.2 117.6 25.2Z "/></svg>